<svg width="20" height="20" viewBox="0 0 20 20" fill="none" xmlns="http://www.w3.org/2000/svg">
<path d="M5.00028 12.1426H4.28599C3.90711 12.1426 3.54375 11.9921 3.27584 11.7242C3.00793 11.4563 2.85742 11.093 2.85742 10.7141V4.2855C2.85742 3.90662 3.00793 3.54326 3.27584 3.27535C3.54375 3.00744 3.90711 2.85693 4.28599 2.85693H10.7146C11.0934 2.85693 11.4568 3.00744 11.7247 3.27535C11.9926 3.54326 12.1431 3.90662 12.1431 4.2855V4.99979M9.28599 7.85693H15.7146C16.5035 7.85693 17.1431 8.49653 17.1431 9.2855V15.7141C17.1431 16.5031 16.5035 17.1426 15.7146 17.1426H9.28599C8.49701 17.1426 7.85742 16.5031 7.85742 15.7141V9.2855C7.85742 8.49653 8.49701 7.85693 9.28599 7.85693Z" stroke="#FFFFFF" stroke-linecap="round" stroke-linejoin="round"/>
</svg>
