<svg width="64" height="64" viewBox="0 0 64 64" fill="none" xmlns="http://www.w3.org/2000/svg">
<circle cx="32" cy="32" r="31" fill="white" fill-opacity="0.2" stroke="white" stroke-width="2"/>
<path d="M40.317 24.4921C38.7873 23.8015 37.147 23.2926 35.4319 23.0012C35.4007 22.9956 35.3695 23.0097 35.3534 23.0378C35.1424 23.407 34.9087 23.8886 34.7451 24.2672C32.9004 23.9955 31.0652 23.9955 29.2583 24.2672C29.0946 23.8802 28.8525 23.407 28.6406 23.0378C28.6245 23.0106 28.5933 22.9965 28.562 23.0012C26.8479 23.2917 25.2076 23.8005 23.6769 24.4921C23.6637 24.4977 23.6523 24.5071 23.6448 24.5193C20.5334 29.0931 19.681 33.5545 20.0992 37.9606C20.1011 37.9822 20.1134 38.0028 20.1304 38.0159C22.1832 39.4993 24.1717 40.3998 26.1233 40.9967C26.1545 41.0061 26.1876 40.9949 26.2075 40.9695C26.6691 40.3492 27.0806 39.6952 27.4335 39.0073C27.4543 38.967 27.4344 38.9192 27.3919 38.9033C26.7391 38.6597 26.1176 38.3626 25.5197 38.0253C25.4724 37.9981 25.4687 37.9316 25.5122 37.8997C25.638 37.8069 25.7638 37.7104 25.884 37.613C25.9057 37.5952 25.936 37.5914 25.9615 37.6026C29.8893 39.3672 34.1415 39.3672 38.023 37.6026C38.0485 37.5905 38.0788 37.5942 38.1015 37.612C38.2216 37.7095 38.3475 37.8069 38.4742 37.8997C38.5177 37.9316 38.5149 37.9981 38.4676 38.0253C37.8697 38.3692 37.2482 38.6597 36.5945 38.9024C36.552 38.9183 36.533 38.967 36.5538 39.0073C36.9143 39.6942 37.3258 40.3483 37.7789 40.9686C37.7978 40.9949 37.8319 41.0061 37.8631 40.9967C39.8241 40.3998 41.8126 39.4993 43.8654 38.0159C43.8834 38.0028 43.8948 37.9831 43.8967 37.9616C44.3971 32.8676 43.0585 28.4428 40.3482 24.5202C40.3416 24.5071 40.3303 24.4977 40.317 24.4921ZM28.02 35.2778C26.8375 35.2778 25.8631 34.2095 25.8631 32.8976C25.8631 31.5857 26.8186 30.5175 28.02 30.5175C29.2309 30.5175 30.1958 31.5951 30.1769 32.8976C30.1769 34.2095 29.2214 35.2778 28.02 35.2778ZM35.9947 35.2778C34.8123 35.2778 33.8379 34.2095 33.8379 32.8976C33.8379 31.5857 34.7933 30.5175 35.9947 30.5175C37.2056 30.5175 38.1705 31.5951 38.1516 32.8976C38.1516 34.2095 37.2056 35.2778 35.9947 35.2778Z" fill="white"/>
</svg>
