<svg width="64" height="64" viewBox="0 0 64 64" fill="none" xmlns="http://www.w3.org/2000/svg">
<circle cx="32" cy="32" r="31" fill="white" fill-opacity="0.2" stroke="white" stroke-width="2"/>
<path d="M29.9671 43.8285L29.9541 35.7487H26.9984L27.0074 32.5517L29.9631 32.5434L29.9809 30.2921C29.9451 28.928 30.4019 28.0492 30.4019 28.0492C31.0261 26.9382 31.8257 26.5168 32.2025 26.3722C32.3304 26.3231 32.4565 26.2704 32.5822 26.2168C33.6962 25.7417 36.9984 26.0908 36.9984 26.0908L36.9851 28.953L35.2923 28.9405C33.5189 28.9091 33.5054 30.1707 33.5054 30.1707L33.492 32.556L36.9045 32.5308L36.4522 35.7488L33.492 35.7571L33.4725 43.9106C39.4053 43.1846 44 38.1289 44 32C44 25.3726 38.6274 20 32 20C25.3726 20 20 25.3726 20 32C20 37.9345 24.3079 42.8628 29.9671 43.8285Z" fill="white"/>
</svg>
