<svg width="32" height="32" viewBox="0 0 32 32" fill="none" xmlns="http://www.w3.org/2000/svg">
<circle cx="16" cy="16" r="16" transform="rotate(-180 16 16)" fill="#FF647C"/>
<path d="M14.4325 7.53834L6.66835 20.5C6.50827 20.7772 6.42357 21.0915 6.42268 21.4116C6.42178 21.7318 6.50472 22.0465 6.66324 22.3247C6.82177 22.6028 7.05035 22.8345 7.32625 22.9969C7.60215 23.1592 7.91575 23.2465 8.23585 23.25H23.7642C24.0843 23.2465 24.3979 23.1592 24.6738 22.9969C24.9497 22.8345 25.1783 22.6028 25.3368 22.3247C25.4953 22.0465 25.5783 21.7318 25.5774 21.4116C25.5765 21.0915 25.4918 20.7772 25.3317 20.5L17.5675 7.53834C17.4041 7.26894 17.174 7.0462 16.8994 6.89161C16.6249 6.73703 16.3151 6.65582 16 6.65582C15.6849 6.65582 15.3752 6.73703 15.1006 6.89161C14.826 7.0462 14.5959 7.26894 14.4325 7.53834V7.53834Z" stroke="white" stroke-width="2" stroke-linecap="round" stroke-linejoin="round"/>
<path d="M16 12.25V15.9167" stroke="white" stroke-width="2" stroke-linecap="round" stroke-linejoin="round"/>
<path d="M16 19.5833H16.01" stroke="white" stroke-width="2" stroke-linecap="round" stroke-linejoin="round"/>
</svg>
