<svg width="18" height="18" viewBox="0 0 18 18" fill="none" xmlns="http://www.w3.org/2000/svg">
<path d="M7.9005 3.7671L7.47299 3.50778L7.47157 3.51016L7.9005 3.7671ZM2.4555 12.8571L2.02651 12.6001L2.02251 12.6071L2.4555 12.8571ZM3.55479 14.7857L3.54929 15.2857H3.55479V14.7857ZM14.4448 14.7857V15.2857L14.4503 15.2856L14.4448 14.7857ZM15.5441 12.8571L15.9771 12.607L15.973 12.6002L15.5441 12.8571ZM10.0991 3.7671L10.528 3.51016L10.5266 3.50779L10.0991 3.7671ZM8.99979 3.14819V2.64819V3.14819ZM9.49979 7.07139C9.49979 6.79524 9.27593 6.57139 8.99979 6.57139C8.72364 6.57139 8.49979 6.79524 8.49979 7.07139H9.49979ZM8.49979 9.64282C8.49979 9.91896 8.72364 10.1428 8.99979 10.1428C9.27593 10.1428 9.49979 9.91896 9.49979 9.64282H8.49979ZM7.47157 3.51016L2.02657 12.6002L2.88443 13.114L8.32943 4.02404L7.47157 3.51016ZM2.02251 12.6071C1.86658 12.8771 1.78408 13.1832 1.78321 13.495L2.78321 13.4978C2.78359 13.3606 2.81989 13.2259 2.8885 13.1071L2.02251 12.6071ZM1.78321 13.495C1.78234 13.8068 1.86312 14.1134 2.01753 14.3843L2.88631 13.8891C2.81837 13.7699 2.78282 13.635 2.78321 13.4978L1.78321 13.495ZM2.01753 14.3843C2.17194 14.6552 2.39458 14.881 2.66332 15.0391L3.17045 14.1772C3.05221 14.1076 2.95425 14.0083 2.88631 13.8891L2.01753 14.3843ZM2.66332 15.0391C2.93205 15.1972 3.2375 15.2822 3.54929 15.2856L3.56028 14.2857C3.4231 14.2842 3.2887 14.2468 3.17045 14.1772L2.66332 15.0391ZM3.55479 15.2857H14.4448V14.2857H3.55479V15.2857ZM14.4503 15.2856C14.7621 15.2822 15.0675 15.1972 15.3363 15.0391L14.8291 14.1772C14.7109 14.2468 14.5765 14.2842 14.4393 14.2857L14.4503 15.2856ZM15.3363 15.0391C15.605 14.881 15.8276 14.6552 15.982 14.3843L15.1133 13.8891C15.0453 14.0083 14.9474 14.1076 14.8291 14.1772L15.3363 15.0391ZM15.982 14.3843C16.1365 14.1134 16.2172 13.8068 16.2164 13.495L15.2164 13.4978C15.2168 13.635 15.1812 13.7699 15.1133 13.8891L15.982 14.3843ZM16.2164 13.495C16.2155 13.1832 16.133 12.8771 15.9771 12.6071L15.1111 13.1071C15.1797 13.2259 15.216 13.3606 15.2164 13.4978L16.2164 13.495ZM15.973 12.6002L10.528 3.51016L9.67014 4.02404L15.1151 13.114L15.973 12.6002ZM10.5266 3.50779C10.3674 3.24538 10.1433 3.02843 9.87585 2.87786L9.38526 3.74925C9.50293 3.8155 9.60154 3.91096 9.67157 4.02641L10.5266 3.50779ZM9.87585 2.87786C9.60842 2.72729 9.30669 2.64819 8.99979 2.64819V3.64819C9.13483 3.64819 9.26759 3.683 9.38526 3.74925L9.87585 2.87786ZM8.99979 2.64819C8.69288 2.64819 8.39115 2.72729 8.12372 2.87786L8.61432 3.74925C8.73199 3.683 8.86475 3.64819 8.99979 3.64819V2.64819ZM8.12372 2.87786C7.85629 3.02843 7.63217 3.24538 7.473 3.50779L8.328 4.02641C8.39804 3.91096 8.49665 3.8155 8.61432 3.74925L8.12372 2.87786ZM8.49979 7.07139V9.64282H9.49979V7.07139H8.49979Z" fill="#FF9356"/>
<path d="M9.64314 12.2143C9.64314 12.5693 9.35532 12.8571 9.00028 12.8571C8.64524 12.8571 8.35742 12.5693 8.35742 12.2143C8.35742 11.8592 8.64524 11.5714 9.00028 11.5714C9.35532 11.5714 9.64314 11.8592 9.64314 12.2143Z" fill="#FF9356"/>
</svg>
