<svg width="64" height="64" viewBox="0 0 64 64" fill="none" xmlns="http://www.w3.org/2000/svg">
<circle cx="32" cy="32" r="31" fill="white" fill-opacity="0.2" stroke="white" stroke-width="2"/>
<path d="M28.001 32C28.001 29.791 29.7913 27.9997 32.0005 27.9997C34.2096 27.9997 36.001 29.791 36.001 32C36.001 34.209 34.2096 36.0003 32.0005 36.0003C29.7913 36.0003 28.001 34.209 28.001 32ZM25.8384 32C25.8384 35.4032 28.5971 38.1619 32.0005 38.1619C35.4039 38.1619 38.1626 35.4032 38.1626 32C38.1626 28.5968 35.4039 25.8381 32.0005 25.8381C28.5971 25.8381 25.8384 28.5968 25.8384 32ZM36.9664 25.5939C36.9664 26.3887 37.6111 27.0342 38.4069 27.0342C39.2017 27.0342 39.8473 26.3887 39.8473 25.5939C39.8473 24.799 39.2027 24.1544 38.4069 24.1544C37.6111 24.1544 36.9664 24.799 36.9664 25.5939ZM27.1518 41.7677C25.9818 41.7144 25.3459 41.5195 24.9233 41.3548C24.363 41.1367 23.9636 40.8769 23.543 40.4572C23.1232 40.0375 22.8625 39.6381 22.6453 39.0779C22.4806 38.6553 22.2857 38.0194 22.2324 36.8494C22.1742 35.5845 22.1626 35.2045 22.1626 32C22.1626 28.7955 22.1752 28.4165 22.2324 27.1506C22.2857 25.9806 22.4815 25.3457 22.6453 24.9221C22.8634 24.3619 23.1232 23.9625 23.543 23.5418C23.9627 23.1221 24.3621 22.8614 24.9233 22.6443C25.3459 22.4795 25.9818 22.2847 27.1518 22.2313C28.4168 22.1732 28.7968 22.1616 32.0005 22.1616C35.2051 22.1616 35.5842 22.1742 36.8501 22.2313C38.0201 22.2847 38.655 22.4805 39.0786 22.6443C39.6389 22.8614 40.0383 23.1221 40.459 23.5418C40.8787 23.9616 41.1385 24.3619 41.3566 24.9221C41.5214 25.3447 41.7162 25.9806 41.7695 27.1506C41.8277 28.4165 41.8393 28.7955 41.8393 32C41.8393 35.2036 41.8277 35.5835 41.7695 36.8494C41.7162 38.0194 41.5204 38.6553 41.3566 39.0779C41.1385 39.6381 40.8787 40.0375 40.459 40.4572C40.0393 40.8769 39.6389 41.1367 39.0786 41.3548C38.656 41.5195 38.0201 41.7144 36.8501 41.7677C35.5851 41.8258 35.2051 41.8375 32.0005 41.8375C28.7968 41.8375 28.4168 41.8258 27.1518 41.7677ZM27.053 20.0727C25.7754 20.1309 24.9029 20.3334 24.1401 20.63C23.351 20.9363 22.6822 21.3473 22.0143 22.0142C21.3474 22.6811 20.9364 23.3499 20.6301 24.1399C20.3335 24.9027 20.1309 25.7751 20.0727 27.0527C20.0136 28.3321 20 28.7412 20 32C20 35.2588 20.0136 35.6679 20.0727 36.9473C20.1309 38.2249 20.3335 39.0973 20.6301 39.8601C20.9364 40.6491 21.3464 41.3189 22.0143 41.9858C22.6812 42.6527 23.3501 43.0627 24.1401 43.37C24.9039 43.6666 25.7754 43.8691 27.053 43.9273C28.3335 43.9855 28.7415 44 32.0005 44C35.2604 44 35.6685 43.9864 36.948 43.9273C38.2256 43.8691 39.098 43.6666 39.8609 43.37C40.6499 43.0627 41.3188 42.6527 41.9867 41.9858C42.6536 41.3189 43.0636 40.6491 43.3709 39.8601C43.6675 39.0973 43.8711 38.2249 43.9283 36.9473C43.9864 35.6669 44 35.2588 44 32C44 28.7412 43.9864 28.3321 43.9283 27.0527C43.8701 25.7751 43.6675 24.9027 43.3709 24.1399C43.0636 23.3509 42.6536 22.6821 41.9867 22.0142C41.3198 21.3473 40.6499 20.9363 39.8619 20.63C39.098 20.3334 38.2256 20.1299 36.949 20.0727C35.6695 20.0145 35.2604 20 32.0015 20C28.7415 20 28.3335 20.0136 27.053 20.0727Z" fill="white"/>
</svg>
