<svg width="64" height="64" viewBox="0 0 64 64" fill="none" xmlns="http://www.w3.org/2000/svg">
<circle cx="32" cy="32" r="31" fill="white" fill-opacity="0.2" stroke="white" stroke-width="2"/>
<path d="M20.7874 30.61C27.7667 27.7875 32.4206 25.9268 34.7493 25.0278C41.3979 22.4609 42.7795 22.015 43.68 22.0001C43.878 21.9971 44.3208 22.0426 44.6077 22.2587C44.8499 22.4411 44.9165 22.6875 44.9484 22.8605C44.9803 23.0334 45.02 23.4274 44.9884 23.7353C44.6281 27.2491 43.0692 35.7763 42.276 39.7118C41.9404 41.3771 41.2796 41.9354 40.6399 41.9901C39.2496 42.1088 38.1938 41.1373 36.8473 40.3179C34.7401 39.0359 33.5498 38.2378 31.5044 36.9867C29.1407 35.5409 30.673 34.7462 32.0201 33.4476C32.3726 33.1077 38.4983 27.9359 38.6169 27.4668C38.6317 27.4081 38.6455 27.1894 38.5055 27.0739C38.3655 26.9584 38.1589 26.9979 38.0098 27.0293C37.7985 27.0738 34.4323 29.139 27.9113 33.2248C26.9558 33.8338 26.0904 34.1305 25.315 34.1149C24.4602 34.0978 22.8159 33.6663 21.5935 33.2975C20.0942 32.8451 18.9025 32.606 19.0063 31.8377C19.0603 31.4375 19.654 31.0283 20.7874 30.61Z" fill="white"/>
</svg>
