<svg width="64" height="64" viewBox="0 0 64 64" fill="none" xmlns="http://www.w3.org/2000/svg">
<circle cx="32" cy="32" r="31" fill="white" fill-opacity="0.2" stroke="white" stroke-width="2"/>
<path d="M20.0995 31.8527C20.0989 33.9417 20.6447 35.981 21.6822 37.7786L20 43.9207L26.2857 42.2726C28.0176 43.2168 29.9675 43.7147 31.9517 43.7154H31.9568C38.4915 43.7154 43.8112 38.3975 43.814 31.8621C43.8151 28.6949 42.5827 25.7166 40.3442 23.4761C38.1054 21.2359 35.1287 20.0013 31.9568 20C25.421 20 20.1021 25.3172 20.0995 31.8527ZM23.8428 37.469L23.6081 37.0965C22.6215 35.5277 22.1007 33.7149 22.1015 31.8534C22.1036 26.4213 26.5245 22.0019 31.9606 22.0019C34.5931 22.003 37.0672 23.0292 38.928 24.8912C40.7887 26.7533 41.8127 29.2287 41.812 31.8614C41.8096 37.2935 37.3887 41.7135 31.9568 41.7135H31.9529C30.1843 41.7126 28.4497 41.2376 26.9369 40.34L26.5769 40.1265L22.8469 41.1045L23.8428 37.469Z" fill="white"/>
<path d="M28.9933 26.8975C28.7713 26.4042 28.5378 26.3942 28.3267 26.3856C28.1539 26.3781 27.9563 26.3787 27.7589 26.3787C27.5613 26.3787 27.2403 26.453 26.9689 26.7493C26.6973 27.0459 25.9319 27.7625 25.9319 29.2201C25.9319 30.6778 26.9936 32.0864 27.1416 32.2843C27.2898 32.4818 29.1912 35.5687 32.2025 36.7562C34.7052 37.7431 35.2145 37.5468 35.7577 37.4973C36.3009 37.448 37.5106 36.7808 37.7574 36.089C38.0044 35.3973 38.0044 34.8044 37.9303 34.6805C37.8563 34.557 37.6587 34.4829 37.3624 34.3348C37.066 34.1866 35.6095 33.4699 35.338 33.371C35.0663 33.2722 34.8688 33.2229 34.6713 33.5195C34.4737 33.8157 33.9063 34.4829 33.7334 34.6805C33.5607 34.8785 33.3877 34.9032 33.0915 34.755C32.7951 34.6063 31.8409 34.2939 30.7089 33.2847C29.8282 32.4993 29.2336 31.5296 29.0607 31.2329C28.8879 30.9367 29.0422 30.7762 29.1908 30.6286C29.3239 30.4958 29.4872 30.2826 29.6354 30.1097C29.7832 29.9367 29.8325 29.8132 29.9313 29.6156C30.0301 29.4179 29.9807 29.2448 29.9067 29.0967C29.8325 28.9485 29.2567 27.4833 28.9933 26.8975Z" fill="white"/>
</svg>
